<svg width="64" height="64" viewBox="0 0 64 64" fill="none" xmlns="http://www.w3.org/2000/svg">
<path d="M32 42C40.271 42 47 33.477 47 23C47 12.523 40.271 4 32 4C23.729 4 17 12.523 17 23C17 33.477 23.729 42 32 42ZM32 8C37.963 8 43 14.869 43 23C43 31.131 37.963 38 32 38C26.037 38 21 31.131 21 23C21 14.869 26.037 8 32 8Z" fill="black"/>
<path d="M4.10298 45.367L0.102977 57.367C0.00289939 57.6676 -0.0243515 57.9877 0.0234677 58.301C0.0712869 58.6142 0.192809 58.9116 0.378032 59.1687C0.563255 59.4258 0.806883 59.6352 1.08886 59.7797C1.37085 59.9243 1.68312 59.9997 1.99998 60H62C62.643 60 63.247 59.691 63.622 59.169C63.8075 58.912 63.9293 58.6146 63.9771 58.3012C64.0249 57.9879 63.9974 57.6676 63.897 57.367L59.897 45.367C59.794 45.0586 59.6174 44.78 59.3825 44.5553C59.1477 44.3305 58.8616 44.1663 58.549 44.077L44.549 40.077C44.0679 39.9385 43.5523 39.9864 43.105 40.211L32 45.764L20.895 40.211C20.4475 39.9869 19.9321 39.939 19.451 40.077L5.45098 44.077C5.13836 44.1663 4.85222 44.3304 4.61733 44.5552C4.38245 44.78 4.2059 45.0586 4.10298 45.367ZM19.802 44.137L31.106 49.789C31.3838 49.9276 31.69 49.9997 32.0005 49.9997C32.3109 49.9997 32.6172 49.9276 32.895 49.789L44.199 44.137L56.437 47.633L59.226 56H4.77398L7.56298 47.633L19.802 44.137Z" fill="black"/>
</svg>
